<svg xmlns="http://www.w3.org/2000/svg" viewBox="0 0 3000 2400" width="3000" height="2400"><g transform="translate(735.6 607.1999999999999) rotate(0.0 726.0 522.0) scale(1.1244560676098572 1.1242779421836837)"><svg width="1291.291" height="928.596" viewBox="0 0 1291.291 928.596"><path d="M2 2h1287.291v924.596H2z" fill="#fff"/><path d="M1289.291 928.596H2a2 2 0 0 1-2-2V2a2 2 0 0 1 2-2h1287.291a2 2 0 0 1 2 2v924.597a2 2 0 0 1-2 2zM4 924.596h1283.291V4H4v920.597z" fill="#190e64"/><path d="M27.24 32.058h1236.81v864.481H27.24z" fill="#fff"/><path d="M1264.05 898.539H27.24a2 2 0 0 1-2-2V32.057a2 2 0 0 1 2-2h1236.81a2 2 0 0 1 2 2v864.481a2 2 0 0 1-2 2zm-1234.81-4h1232.81V34.057H29.24v860.481z" fill="#190e64"/></svg></g><g transform="translate(950.4 886.8) rotate(0.0 513.5999999999999 244.79999999999995) scale(1.1997687361665097 1.1972387214781592)"><svg width="856.165" height="408.941" viewBox="0 0 856.165 408.941"><path d="M414.365 408.941a2.004 2.004 0 0 1-1.814-1.155l-90.599-194.542-89.654 63.787a2 2 0 0 1-2.866-.586l-90.379-147.646L3.313 246.846a2 2 0 1 1-2.625-3.019l137.525-119.599a2 2 0 0 1 3.018.465l90.494 147.834 89.866-63.937a2 2 0 0 1 2.973.785l90.591 194.526 89.217-64.395 91.394-203.228a1.998 1.998 0 0 1 2.35-1.109l91.613 24.927c.314.085.604.247.842.47l90.126 84.392 71.983-79.668a2 2 0 0 1 2.969 2.682L782.3 249.151a2 2 0 0 1-1.401.657 1.962 1.962 0 0 1-1.45-.538l-91.25-85.444-89.485-24.348-90.912 202.158c-.144.32-.369.596-.653.801l-91.612 66.124a1.999 1.999 0 0 1-1.171.378z" fill="#ec535b"/><path d="M690.739 317.879c-.288 0-.575-.062-.842-.186l-91.869-42.643a2 2 0 0 1-.946-.917L506.478 93.519l-90.205 93.083a1.997 1.997 0 0 1-3.225-.498L322.434 4.816l-89.558 53.039-91.606 163.241a1.998 1.998 0 0 1-3.145.449L.6 86.626a1.999 1.999 0 1 1 2.801-2.855l135.66 133.088 90.59-161.431c.172-.307.422-.563.725-.742L322.243.28a2 2 0 0 1 2.809.826l90.311 180.686 90.202-93.08a2.002 2.002 0 0 1 3.224.495l91.555 182.508 89.397 41.496 91.041-203.363a1.999 1.999 0 0 1 1.63-1.173 1.985 1.985 0 0 1 1.827.834l71.557 100.97a1.999 1.999 0 1 1-3.264 2.312l-69.531-98.112-90.438 202.017a2.001 2.001 0 0 1-1.825 1.182z" fill="#190e64"/></svg></g><g transform="translate(177.6 730.8) rotate(0.0 582.6 577.8) scale(1.1997430004695184 1.1996935362306202)"><svg width="971.208" height="963.246" viewBox="0 0 971.208 963.246"><path d="M696.261 934.753c-73.808.43-124.323-50.247-145.556-121.029-23.803-79.348-12.751-187.915-31.582-267.883-81.961-46.309-38.65-177.959 53.811-154.867 104.064 25.988 112.803 163.586 117.864 256.982 2.272 41.936 3.611 93.749 15.704 127.36 98.683 13.562 90.051 158.853-10.241 159.438z" fill="#fff"/><path d="M695.309 936.756c-35.624 0-66.86-11.54-92.859-34.309-24.15-21.149-42.706-51.631-53.661-88.149-12.849-42.831-15.619-94.563-18.299-144.593-2.261-42.224-4.599-85.874-13.117-122.56-19.992-11.531-33.84-28.832-40.071-50.082-5.678-19.364-4.57-40.646 3.119-59.924 7.085-17.766 19.374-32.387 34.6-41.17 17.033-9.825 37.227-12.222 58.396-6.937 24.81 6.196 45.884 19.189 62.637 38.618 14.466 16.778 26.188 38.958 34.841 65.925 16.29 50.77 19.532 110.592 21.899 154.271.249 4.585.486 9.289.727 14.073 1.94 38.44 4.135 81.945 14.461 111.588 51.477 7.687 72.384 50.257 69.99 86.831-1.324 20.234-9.348 38.938-22.593 52.663-14.859 15.399-35.299 23.612-59.108 23.751l-.963.003zm.94-4.003.012 2-.012-2c50.43-.294 75.379-36.713 77.733-72.676 2.295-35.069-17.927-75.933-67.752-82.78a2 2 0 0 1-1.609-1.305c-10.872-30.218-13.114-74.66-15.092-113.871-.241-4.779-.479-9.478-.727-14.058-2.355-43.463-5.582-102.987-21.714-153.266-18.366-57.24-49.322-90.567-94.638-101.884-47.043-11.75-76.975 17.279-88.313 45.708-13.35 33.47-7.788 80.754 35.969 105.478a2 2 0 0 1 .963 1.283c8.761 37.207 11.127 81.385 13.416 124.109 2.667 49.795 5.424 101.284 18.135 143.658 22.584 75.284 76.261 120.009 143.629 119.604z" fill="#190e64"/><path d="M687.178 775.344c13.805-30.978 18.379-75.193 24.717-116.222 12.668-88.519 27.027-188.847 88.522-254.71 30.153-32.296 80.776-34.029 113.07-3.879 32.294 30.153 34.031 80.776 3.878 113.071-27.181 29.111-38.217 106.225-47.085 168.186-15.411 131.266-48.821 250.414-173.332 252.96" fill="#fff"/><path d="M696.947 936.75a2 2 0 0 1-.041-4c56.485-1.155 97.657-26.401 125.871-77.182 21.998-39.593 36.035-93.26 45.515-174.012 8.915-62.292 20-139.748 47.61-169.317 29.351-31.437 27.655-80.893-3.781-110.245-31.438-29.351-80.893-27.655-110.244 3.782-61.067 65.405-75.378 165.403-88.004 253.629-1.057 6.841-2.08 13.873-3.068 20.675-5.005 34.415-10.181 70.002-21.802 96.078a2.002 2.002 0 0 1-2.641 1.013 2.002 2.002 0 0 1-1.013-2.642c11.396-25.57 16.531-60.879 21.497-95.024.99-6.811 2.015-13.853 3.07-20.688 12.706-88.787 27.111-189.446 89.037-255.77 30.856-33.048 82.848-34.832 115.897-3.976 33.049 30.857 34.832 82.849 3.976 115.898-26.751 28.651-37.739 105.417-46.567 167.1-9.538 81.249-23.723 135.372-45.986 175.442-28.964 52.133-71.254 78.052-129.285 79.239h-.042z" fill="#190e64"/><path d="M582.705 581.86c.69 31.693 10.712 67.9 6.246 103.346-4.52 35.872-27.302 49.53-31.685 65.301-6.754 24.301-26.102 210.739-26.102 210.739H130.519l32.026-329.26c-14.808-79.083-21.913-180.332 13.06-232.756 41.436-51.437 133.138-51.668 185.542-48.425l123.567 19.804s96.557 23.623 144.228 65.024" fill="#ec535b"/><path d="M531.164 963.246H130.519a1.999 1.999 0 0 1-1.991-2.193l31.999-328.978c-11.685-62.523-25.404-175.766 13.415-233.954.033-.05.068-.098.106-.145 30.933-38.398 93.924-54.944 187.224-49.167.064.004.129.011.193.021l123.566 19.803c.053.008.106.019.159.032.971.237 97.577 24.216 145.064 65.457a2 2 0 0 1-2.623 3.021c-46.185-40.11-140.114-63.777-143.315-64.572l-123.388-19.775c-91.814-5.667-153.627 10.352-183.708 47.62-38.028 57.117-24.287 169.361-12.708 231.203.035.185.043.375.025.562l-31.813 327.066h396.638c2.121-20.334 19.533-186.086 25.978-209.273 1.7-6.116 5.869-11.748 10.696-18.271 8.076-10.912 18.127-24.491 20.932-46.746 2.745-21.782-.046-43.861-2.744-65.213-1.673-13.238-3.254-25.742-3.517-37.839a2 2 0 0 1 1.956-2.043 1.99 1.99 0 0 1 2.043 1.956c.259 11.889 1.827 24.293 3.486 37.425 2.729 21.598 5.552 43.931 2.745 66.214-2.935 23.293-13.332 37.339-21.685 48.626-4.591 6.202-8.556 11.56-10.058 16.961-6.632 23.863-25.846 208.547-26.04 210.409a2 2 0 0 1-1.989 1.794z" fill="#ec535b"/><path d="m360.662 344.196 23.668 61.545s-26.931 178.72-36.772 239.341c-6.418 39.537-30.818 256.436-31.24 316.164H130.52l27.033-329.091s13.614-259.94 66.725-272.11c51.112-16.692 136.385-15.85 136.385-15.85z" fill="#fff"/><path d="M316.317 963.246H130.519a1.997 1.997 0 0 1-1.993-2.165l27.033-329.09c.03-.592 3.52-65.785 13.461-131.626 13.444-89.034 31.855-136.892 54.719-142.249 50.846-16.573 136.085-15.931 136.942-15.921.82.008 1.552.517 1.847 1.282l23.668 61.545c.125.323.163.673.111 1.016-.269 1.788-27.045 179.425-36.775 239.363-6.066 37.371-30.788 255.576-31.214 315.857a2 2 0 0 1-2 1.986zm-183.627-4h181.649c.932-63.086 25.233-277.452 31.244-314.484 9.464-58.299 35.067-228.034 36.689-238.795l-22.987-59.775c-11.122-.022-87.673.5-134.388 15.755a1.879 1.879 0 0 1-.174.048c-20.848 4.777-38.742 52.832-51.749 138.968-9.913 65.65-13.392 130.648-13.426 131.297l-26.859 326.986z" fill="#190e64"/><path d="M590.905 577.756s10.539 69.325 7.681 108.928c-2.108 29.208-18.797 55.473-25.263 73.096-14.19 38.675-31.019 201.466-31.019 201.466h-75.553s29.471-218.414 29.471-299.728c0-84.648-18.92-257.495-18.92-257.495l27.479-34.209c51.401 14.652 110.424 11.151 151.993 93.552" fill="#fff"/><path d="M542.303 963.246H466.75a2 2 0 0 1-1.982-2.268c.294-2.183 29.453-219.211 29.453-299.46 0-83.57-18.718-255.55-18.908-257.277a1.999 1.999 0 0 1 .429-1.47l27.479-34.209a2 2 0 0 1 2.107-.671c9.233 2.632 18.524 4.633 28.36 6.752 44.438 9.572 90.388 19.47 124.87 87.823a2 2 0 1 1-3.572 1.802c-33.621-66.646-78.622-76.34-122.141-85.714-9.036-1.947-18.366-3.957-27.335-6.456l-26.133 32.533c1.414 13.088 18.842 176.091 18.842 256.888 0 76.074-26.061 274.247-29.186 297.728h71.465c1.97-18.771 17.466-163.422 30.944-200.153 1.839-5.013 4.518-10.769 7.354-16.862 7.262-15.604 16.3-35.024 17.792-55.688 2.809-38.931-7.559-107.793-7.664-108.484a1.999 1.999 0 0 1 1.676-2.278 1.994 1.994 0 0 1 2.278 1.676c.106.696 10.54 70.002 7.699 109.373-1.544 21.398-10.754 41.188-18.155 57.089-2.8 6.016-5.444 11.697-7.226 16.552-13.942 38-30.739 199.356-30.907 200.982a1.999 1.999 0 0 1-1.989 1.794z" fill="#190e64"/><path d="m487.438 325.495-9.124 37.522 26.467 6.797c-13.679 36.79-38.401 42.259-79.768 42.336-45.763.085-91.201-23.668-101.694-66.597l37.343-1.357 23.475-123.854" fill="#fff"/><path d="M424.771 414.15c-23.5 0-46.531-6.198-64.877-17.464-20.117-12.354-33.436-29.871-38.517-50.658a1.998 1.998 0 0 1 1.87-2.473l35.748-1.3 23.178-122.286a2 2 0 0 1 3.929.745l-23.475 123.854a2 2 0 0 1-1.892 1.626l-34.849 1.267c12.038 43.074 59.307 62.688 98.903 62.688h.221c41.613-.077 64.042-5.99 77.101-38.957l-24.293-6.239a2 2 0 0 1-1.446-2.41l9.124-37.522a2 2 0 0 1 3.887.945l-8.658 35.604 24.555 6.306a2.001 2.001 0 0 1 1.377 2.634c-13.678 36.788-38.225 43.559-81.639 43.639h-.247z" fill="#190e64"/><path d="M380.788 214.681c-32.423-21.574-55.137-70.399-51.416-107.164 5.733-56.646 64.502-97.088 131.263-90.331 24.322 2.462 46.345 10.853 64.244 23.26 34.998 20.38 60.568 75.921 61.155 140.702.736 81.242-38.114 144.396-86.74 145.202-38.974.646-64.377-32.384-73.553-43.886" fill="#fff"/><path d="M498.17 328.357c-38.451 0-63.771-31.809-73.363-43.858l-.629-.79a2 2 0 0 1 3.127-2.495l.632.793c9.352 11.748 34.233 42.931 71.324 42.34 22.931-.38 44.311-15.107 60.201-41.47 16.196-26.87 24.923-62.993 24.572-101.714-.566-62.51-24.743-118.367-60.161-138.991a2.304 2.304 0 0 1-.133-.085c-18.244-12.646-40.134-20.569-63.306-22.914-31.818-3.222-62.779 4.254-87.182 21.047-24.3 16.723-39.177 40.693-41.89 67.495-3.684 36.4 19.458 84.621 50.534 105.298a2 2 0 0 1-2.216 3.33c-32.719-21.771-56.18-70.682-52.298-109.031 2.833-27.991 18.318-52.988 43.602-70.388 25.182-17.329 57.089-25.048 89.853-21.731 23.816 2.41 46.332 10.558 65.117 23.562 36.558 21.34 61.501 78.539 62.08 142.372.741 81.717-38.224 146.383-88.707 147.219-.387.007-.773.01-1.157.01z" fill="#190e64"/><path d="M388.553 230.052c-17.996 5.741-37.239-4.193-42.981-22.189-5.741-17.996 4.193-37.239 22.189-42.981 14.999-4.785 30.865 1.319 39.057 13.904" fill="#fff"/><path d="M378.181 233.673c-15.337 0-29.609-9.83-34.514-25.203-6.067-19.019 4.469-39.427 23.487-45.494 15.484-4.939 32.483 1.112 41.341 14.718a2.001 2.001 0 0 1-3.353 2.183c-7.876-12.102-22.999-17.483-36.772-13.09-16.917 5.397-26.289 23.551-20.892 40.468s23.551 26.29 40.468 20.892a2 2 0 1 1 1.216 3.81 36.08 36.08 0 0 1-10.98 1.716z" fill="#190e64"/><path d="M360.768 201.157c-4.603-19.559 21.735-27.332 28.964-13.462 6.968 13.369-5.607 16.546-10.609 20.808-6.352 5.413 2.089 18.597 12.259 7.26" fill="#fff"/><path d="M383.409 222.224a8.131 8.131 0 0 1-2.026-.252c-3.031-.781-5.473-3.384-6.222-6.631-.735-3.186.262-6.311 2.666-8.36 1.145-.976 2.559-1.846 4.056-2.769 5.529-3.405 10.752-6.622 6.076-15.593-3.144-6.032-10.56-7.043-16.262-4.925-5.508 2.047-11.166 7.729-8.982 17.005a2 2 0 0 1-3.894.916c-2.602-11.055 3.892-18.85 11.483-21.671 7.345-2.73 16.986-1.262 21.202 6.826 6.397 12.272-1.981 17.433-7.525 20.848-1.362.839-2.649 1.631-3.559 2.407-1.797 1.531-1.552 3.598-1.363 4.416.417 1.809 1.722 3.244 3.323 3.657 2.209.57 4.878-.733 7.513-3.67a2 2 0 1 1 2.977 2.671c-3.715 4.141-7.092 5.125-9.462 5.125zm128.154-27.749h-.006a2 2 0 0 1-1.994-2.006l.077-24.945a2 2 0 0 1 2-1.994h.006a2 2 0 0 1 1.994 2.006l-.077 24.945a2 2 0 0 1-2 1.994zm55.663 1.49h-.006a2 2 0 0 1-1.994-2.006l.077-24.945a2 2 0 0 1 2-1.994h.006a2 2 0 0 1 1.994 2.006l-.077 24.945a2 2 0 0 1-2 1.994zm-20.489 33.088a2 2 0 0 1-1.23-3.578c10.107-7.875 12.901-17.269 9.693-21.457-2.131-2.782-7.911-3.553-17.184 3.431a2 2 0 1 1-2.406-3.196c11.613-8.744 19.523-6.902 22.766-2.668 4.465 5.829 1.792 17.538-10.411 27.044a1.988 1.988 0 0 1-1.228.422z" fill="#190e64"/><path d="M522.7 262.726c-9.985 2.902-25.658.698-29.416-10.116-4.997-14.381-23.427-6.741-17.546 14.884 4.206 15.466 23.798 24.152 43.914 16.486 17.161-6.54 11.401-23.682 3.049-21.255z" fill="#fff"/><path d="M504.688 288.811c-5.873 0-11.528-1.274-16.515-3.811-7.294-3.711-12.396-9.741-14.365-16.981-3.594-13.216 1.339-22.238 8.07-24.32 4.685-1.45 10.614.541 13.295 8.255 3.391 9.76 18.096 11.429 26.968 8.851 4.212-1.225 8.419 1.313 10.002 6.035 2.079 6.201-.721 14.795-11.78 19.009-5.187 1.977-10.516 2.961-15.676 2.961zm-19.923-41.555c-.558 0-1.128.086-1.704.265-4.896 1.515-8.321 8.681-5.393 19.449 1.669 6.136 6.044 11.273 12.319 14.466 8.363 4.253 18.917 4.501 28.952.677 8.593-3.275 10.903-9.553 9.412-14-.751-2.242-2.616-4.183-5.093-3.465-10.626 3.089-27.612.854-31.863-11.379-1.324-3.81-3.821-6.011-6.631-6.011z" fill="#190e64"/><path d="M580.493 131.629c-21.359-30.146-115.078-22.243-170.858 59.943l3.631-35.938c1.164-1.621 35.11-53.862 89.256-63.261s73.033 9.924 73.033 9.924c2.389 9.425 3.96 19.238 4.937 29.332z" fill="#ec535b"/><path d="M409.634 193.572a2.001 2.001 0 0 1-1.99-2.201l3.631-35.938c.035-.348.161-.682.366-.966l.204-.298c6.212-9.108 39.76-54.987 90.334-63.767 54.56-9.471 74.004 9.677 74.806 10.497.247.252.422.565.508.907 2.309 9.107 3.94 18.8 4.989 29.631a2 2 0 0 1-3.623 1.349c-7.021-9.91-22.329-15.485-42.049-15.281-34.599.348-88.233 20.249-125.523 75.19a1.999 1.999 0 0 1-1.655.877zm5.57-37.228-2.816 27.872c16.226-22.027 36.586-40.062 59.258-52.426 21.238-11.582 44.367-18.076 65.126-18.285 17.75-.171 32.261 4.189 41.053 12.151-.982-7.966-2.322-15.311-4.063-22.288-2.837-2.439-22.594-17.412-70.898-9.025-48.844 8.479-81.47 52.944-87.66 62.001z" fill="#ec535b"/><path d="M438.785 2.731c-93.27 9.323-117.75 54.302-126.162 101.127-10.194 56.75 5.497 121.52 13.996 139.931 0 0-19.684 33.588-11.006 56.385-8.831 21.536-41.075 14.27-36.383 46.853 0 0 86.508 79.735 111.699 89.418s76.339 16.481 110.394 5.791c29.482-9.254 62.68-38.621 65.325-53.801s-16.891-17.726-16.891-17.726c-4.475-12.115-20.094-17.292-35.939-16.778-4.611-9.783-4.789-19.571-1.362-29.362 0 0-13.421 3.07-25.018.925-15.414-2.851-36.701-10.537-60.697-43.074-23.365-31.681-19.076-83.103-13.474-126.788 36.298-42.047 93.183-80.067 162.29-53.337-5.398-29.747-45.39-108.7-136.771-99.566z" fill="#190e64"/><path d="M460.03 449.718c-27.176 0-54.46-5.502-69.818-11.406-25.257-9.708-108.793-86.548-112.336-89.814a1.997 1.997 0 0 1-.624-1.186c-2.972-20.634 8.169-26.526 18.943-32.224 7.104-3.756 13.825-7.312 17.269-14.973-7.561-21.512 7.786-50.812 10.916-56.431-9.6-21.761-23.549-85.481-13.723-140.18C318.319 60.847 339.785 10.616 438.588.74l.199 1.99-.199-1.99c50.244-5.021 83.339 16.688 102.249 35.785 23.987 24.226 34.348 52.516 36.688 65.414a1.998 1.998 0 0 1-2.69 2.222c-74.328-28.751-131.792 20.204-159.661 52.324-6.049 47.404-8.574 95.257 13.177 124.749 23.691 32.123 44.217 39.476 59.452 42.294 11.042 2.043 24.078-.878 24.208-.908a2 2 0 0 1 2.333 2.61c-3.248 9.282-3.004 18.021.751 26.673 14.204-.182 30.582 4.213 36.103 17.023 2.975.581 10.768 2.595 14.96 8.292 2.401 3.263 3.229 7.152 2.46 11.56-2.713 15.567-36.184 45.788-66.696 55.366-12.681 3.98-27.272 5.574-41.893 5.574zM281.115 346.042c7.288 6.684 86.995 79.489 110.533 88.537 24.008 9.229 75.271 16.362 109.077 5.75 28.785-9.036 61.475-38.008 63.954-52.236.581-3.333.014-6.109-1.733-8.491-4.116-5.609-13.355-6.896-13.449-6.909a2.004 2.004 0 0 1-1.615-1.29c-4.466-12.09-21.107-15.895-33.999-15.471a2.023 2.023 0 0 1-1.874-1.146c-4.186-8.881-5.005-18.162-2.447-27.63-4.817.795-14.04 1.869-22.487.307-14.714-2.722-37.144-10.229-61.943-43.854-23.812-32.286-19.634-83.118-13.849-128.229.05-.389.213-.755.47-1.053 27.985-32.417 85.81-82.155 161.105-55.169-8.329-35.436-50.839-102.742-133.874-94.436-96.139 9.609-116.978 58.217-124.392 99.49-10.601 59.013 6.691 123.245 13.843 138.739.274.594.24 1.285-.09 1.849-.192.328-19.095 33.036-10.862 54.663.181.475.174 1-.019 1.47-3.892 9.49-11.775 13.659-19.4 17.691-10.285 5.439-19.187 10.145-16.95 27.417z" fill="#190e64"/><g fill="#fff"><path d="M351.273 286.192a1.99 1.99 0 0 1-1.407-.579c-.5-.495-12.397-12.455-25.074-41.013a2 2 0 0 1 3.657-1.623c12.374 27.875 24.115 39.677 24.231 39.793a2 2 0 0 1-1.406 3.421zm7.817 57.531c-.331 0-.667-.083-.976-.256-14.601-8.188-32.829-20.403-44.274-42.369a2 2 0 0 1 3.547-1.849c10.958 21.029 28.566 32.812 42.683 40.728a2.001 2.001 0 0 1-.98 3.745zm135.914 39.239c-.747 0-1.495-.032-2.245-.096-23.632-2.039-56.29-14.487-77.666-62.216a2 2 0 1 1 3.651-1.635c20.582 45.953 51.797 57.919 74.359 59.865 7.951.688 15.768-2.939 19.456-9.018 2.839-4.682 2.687-9.958-.429-14.856a2 2 0 1 1 3.375-2.147c3.918 6.16 4.091 13.113.474 19.077-4.103 6.766-12.337 11.025-20.975 11.025zm5.308 36.709a2 2 0 0 1-.725-3.865c22.682-8.819 42.082-27.197 48.273-45.73a2.001 2.001 0 0 1 3.794 1.268c-6.548 19.599-26.89 38.965-50.618 48.191a2.005 2.005 0 0 1-.724.136zm383.894 47.083c9.354-10.23 26.762-30.474 33.523-31.2s53.69 37.157 51.399 47.662c-2.292 10.505-29.462 39.093-33.98 44.4-17.558 20.619-51.533-1.75-31.028-27.113 9.326-11.536 18.389-21.566 18.389-21.566l-18.389 21.566"/></g><path d="M918.484 537.737c-5.62 0-11.016-2.063-15.087-5.44-8.208-6.811-11.65-19.672-.833-33.052 9.253-11.446 18.369-21.548 18.46-21.649a2 2 0 0 1 3.006 2.639l-18.371 21.544c-9.705 12.021-5.909 22.293.293 27.439 7.16 5.941 19.292 6.943 27.673-2.899.75-.88 2.101-2.378 3.81-4.273 8.358-9.268 27.931-30.97 29.739-39.256.14-.641.142-3.275-5.705-10.286-13.134-15.747-39.741-35.105-43.54-34.959-5.152.553-20.298 17.336-28.435 26.353a931.82 931.82 0 0 1-3.811 4.206 2 2 0 0 1-2.952-2.7 920.358 920.358 0 0 0 3.793-4.187c13.298-14.736 24.81-26.988 30.992-27.651 6.261-.655 32.101 19.667 44.923 33.952 6.583 7.334 9.41 12.608 8.643 16.124-2.034 9.324-21.379 30.773-30.676 41.082-1.688 1.872-3.022 3.351-3.735 4.188-5.308 6.233-11.888 8.825-18.186 8.825z" fill="#190e64"/><path d="M873.05 432.415c9.354-10.23 26.604-30.299 33.365-31.025s53.69 37.157 51.399 47.662c-2.292 10.505-29.462 39.093-33.98 44.4-17.558 20.619-51.533-1.75-31.028-27.113 9.326-11.536 18.389-21.566 18.389-21.566l-18.389 21.566" fill="#fff"/><path d="M907.17 503.572c-5.621 0-11.016-2.062-15.087-5.44-8.208-6.81-11.648-19.669-.839-33.045a.106.106 0 0 1 .009-.011c9.253-11.445 18.365-21.544 18.456-21.645a2 2 0 0 1 3.006 2.639l-18.372 21.545c-9.704 12.021-5.908 22.292.294 27.439 7.16 5.94 19.291 6.943 27.673-2.9.75-.88 2.099-2.376 3.808-4.271 8.358-9.268 27.933-30.972 29.741-39.258.14-.641.142-3.275-5.705-10.285-13.133-15.747-39.712-35.079-43.541-34.96-5.151.553-20.197 17.225-28.28 26.182a909.411 909.411 0 0 1-3.808 4.203 2 2 0 1 1-2.952-2.7 847.246 847.246 0 0 0 3.791-4.184c13.214-14.643 24.656-26.817 30.837-27.48 6.259-.677 32.1 19.667 44.922 33.952 6.583 7.334 9.411 12.609 8.644 16.125-2.035 9.324-21.381 30.776-30.679 41.085-1.687 1.871-3.02 3.348-3.732 4.185-5.308 6.234-11.888 8.825-18.186 8.825z" fill="#190e64"/><path d="M848.45 410.619c9.354-10.23 32.57-36.891 39.331-37.617s53.69 37.157 51.399 47.662c-2.292 10.505-29.462 39.093-33.98 44.4-17.558 20.619-51.533-1.75-31.028-27.113 9.326-11.536 14.491-16.994 14.491-16.994l-14.491 16.994" fill="#fff"/><path d="M888.537 475.185c-5.62 0-11.016-2.063-15.087-5.44-8.207-6.81-11.648-19.668-.839-33.045l.009-.012c9.267-11.462 14.376-16.88 14.589-17.105a2.001 2.001 0 0 1 2.975 2.673l-14.473 16.973c-9.704 12.021-5.909 22.293.293 27.439 7.16 5.939 19.291 6.942 27.673-2.899.75-.88 2.098-2.375 3.805-4.268 8.359-9.269 27.936-30.974 29.744-39.261.14-.641.142-3.275-5.705-10.285-13.089-15.693-39.515-34.961-43.501-34.961h-.04c-5.16.555-25.4 22.975-34.043 32.549a944.75 944.75 0 0 1-4.012 4.428 2 2 0 0 1-2.952-2.7 982.725 982.725 0 0 0 3.995-4.409c18.941-20.982 31.002-33.246 36.6-33.848 6.218-.663 32.102 19.667 44.925 33.954 6.582 7.333 9.409 12.607 8.642 16.123-2.035 9.325-21.384 30.778-30.682 41.088-1.686 1.869-3.018 3.346-3.73 4.182-5.308 6.233-11.888 8.824-18.186 8.825z" fill="#190e64"/><path d="M784.012 426.12c40.506-49.38 96.841-102.928 112.187-106.491s59.169 32.246 57.571 45.919c-1.163 9.954-19.251 32.49-25.447 40.329-18.072 22.865-53.679 1.455-34.589-26.08 2.965-4.277 8.876-10.789 8.876-10.789l-26.547 27.579" fill="#fff"/><path d="M784.011 428.12a2 2 0 0 1-1.546-3.269c41.354-50.414 97.465-103.499 113.281-107.17 9.939-2.305 28.72 9.391 41.968 21.234 5.766 5.155 19.066 18.092 18.042 26.866-1.052 9.009-13.999 26.348-25.161 40.447l-.705.89c-10.177 12.876-25.492 12.546-34.737 5.698-6.965-5.159-11.147-14.439-7.578-25.305l-10.072 10.464a2 2 0 0 1-2.882-2.774l26.547-27.579a2 2 0 0 1 2.922 2.731c-.058.064-5.858 6.465-8.714 10.584-9.151 13.199-4.557 23.69 2.158 28.664 7.734 5.728 20.602 5.936 29.218-4.964l.706-.893c6.364-8.039 23.268-29.393 24.324-38.428.543-4.653-6.025-13.845-16.735-23.419-14.799-13.231-31.311-21.972-38.398-20.32-14.867 3.451-70.932 56.851-111.093 105.811a1.996 1.996 0 0 1-1.547.731z" fill="#190e64"/><path d="M748.499 491.205c7.128-32.399 23.382-90.921 36.562-97.614 6.682-3.394 62.382-29.275 75.567-33.822 26.485-9.134 41.22 27.538 11.224 41.066-17.72 7.992-53.355 25.285-53.355 25.285 6.396 21.59 8.997 44.07-.954 66.442" fill="#fff"/><path d="M817.542 494.562a2.002 2.002 0 0 1-1.827-2.814c8.359-18.794 8.626-38.859.864-65.061a2 2 0 0 1 1.044-2.367c.356-.173 35.863-17.397 53.406-25.309 14.612-6.589 17.571-18.9 14.138-27.55-3.034-7.642-11.802-13.97-23.887-9.802-13.117 4.523-68.479 30.243-75.313 33.714-11.842 6.014-27.727 60.862-35.515 96.261a2 2 0 1 1-3.906-.86c.808-3.671 19.984-90.016 37.61-98.968 6.87-3.489 62.58-29.363 75.82-33.929 14.566-5.024 25.196 2.755 28.909 12.107 4.113 10.36.794 25.004-16.211 32.673-15.417 6.953-44.788 21.138-51.784 24.524 4.843 16.851 9.491 41.438-1.52 66.192a2 2 0 0 1-1.828 1.188z" fill="#190e64"/><path d="M221.255 581.656c-13.135 32.067-23.464 68.715-30.599 98.523-25.208 107.311-31.51 233.153-28.174 281.067H3.485c-9.113-108.822 24.088-356.491 89.199-477.401 33.45-66.716 77.725-108.368 131.593-123.8" fill="#fff"/><path d="M162.481 963.246H3.485a2 2 0 0 1-1.993-1.833c-4.668-55.755 1.764-145.674 16.787-234.667 17.276-102.338 43.075-188.938 72.645-243.849 33.683-67.184 78.374-109.181 132.803-124.774a2 2 0 1 1 1.102 3.846c-53.31 15.272-97.168 56.579-130.356 122.773C30.122 604.239-3.224 849.899 5.33 959.246h155.016c-3.286-53.489 4.609-178.408 28.363-279.523 6.276-26.222 16.695-64.644 30.695-98.824a2 2 0 0 1 3.701 1.517c-13.904 33.944-24.263 72.153-30.505 98.23-23.982 102.093-31.743 228.48-28.124 280.462a2.002 2.002 0 0 1-1.995 2.139z" fill="#190e64"/><path d="M722.085 595.297c29.81 30.48 117.772 45.443 155.516 37.892 2.286-14.674 5.176-29.519 8.592-44.514-37.744 7.55-125.696-7.439-155.506-37.918-3.48 15.56-6.434 30.508-8.603 44.54z" fill="#fff"/><path d="M854.441 637.087c-43.187 0-108.574-14.614-133.786-40.392a2.002 2.002 0 0 1-.547-1.704c2.051-13.273 4.873-27.885 8.627-44.671a1.998 1.998 0 0 1 3.381-.962c29.669 30.335 116.771 44.74 153.685 37.356a1.999 1.999 0 0 1 2.342 2.405c-3.469 15.222-6.351 30.153-8.567 44.377a2 2 0 0 1-1.583 1.653c-6.507 1.302-14.551 1.938-23.553 1.938zm-130.224-42.484c29.936 29.479 114.262 43.606 151.627 36.884 2.054-12.974 4.653-26.515 7.736-40.313-38.152 6.059-119.901-7.842-151.709-36.514-3.263 14.841-5.774 27.95-7.654 39.943z" fill="#190e64"/></svg></g><g transform="translate(142.79999999999998 1880.3999999999999) rotate(0.0 1101.6 29.399999999999977) scale(1.1803341922971835 1.2143240675725901)"><svg width="1866.59" height="48.422" viewBox="0 0 1866.59 48.422"><path d="M2 2h1862.59v44.422H2z" fill="#fff"/><path d="M1864.59 48.422H2a2 2 0 0 1-2-2V2a2 2 0 0 1 2-2h1862.59a2 2 0 0 1 2 2v44.421a2 2 0 0 1-2 2.001zM4 44.422h1858.59V4H4z" fill="#190e64"/></svg></g><g transform="translate(1196.3999999999999 955.1999999999999) rotate(35.91086299135304 65.40000000000009 176.40000000000003) scale(1.202250082723631 1.203528713438722)"><svg width="108.796" height="293.138" viewBox="0 0 108.796 293.138"><path d="m5.794 33.038 30.826-9.306 70.173 232.447-30.826 9.306z" fill="#ec535b"/><path d="M75.969 267.493a2 2 0 0 1-1.914-1.422L3.88 33.617a2 2 0 0 1 1.337-2.492l30.827-9.306a2 2 0 0 1 2.493 1.336l70.174 232.454a2 2 0 0 1-1.336 2.493l-30.828 9.307c-.19.055-.384.084-.578.084zM8.288 34.375l69.018 228.624 26.999-8.15L35.286 26.225z" fill="#ec535b"/><path d="m75.969 265.492 24.56 25.646 6.267-34.952z" fill="#fff"/><g fill="#190e64"><path d="M100.529 293.138a2 2 0 0 1-1.444-.616l-24.561-25.646a2 2 0 0 1 .866-3.299l30.828-9.307a2.002 2.002 0 0 1 2.547 2.268l-6.267 34.952a2 2 0 0 1-1.969 1.648zm-20.86-26.674 19.585 20.451 4.998-27.872z"/><path d="m90.928 281.112 12.051-3.638-2.45 13.664z"/><path d="M100.529 293.138a2 2 0 0 1-1.444-.616l-9.601-10.025a2 2 0 0 1 .866-3.299l12.051-3.639a2.002 2.002 0 0 1 2.547 2.268l-2.45 13.664a2 2 0 0 1-1.969 1.647zm-5.901-11.054 4.626 4.831 1.181-6.584zM13.452 2.691c8.513-2.57 17.497 2.248 20.067 10.76l3.103 10.28-30.827 9.307-3.103-10.28C.121 14.245 4.939 5.261 13.452 2.691z"/><path d="M5.794 35.039a2.001 2.001 0 0 1-1.914-1.422L.776 23.337A17.982 17.982 0 0 1 2.152 9.552 17.983 17.983 0 0 1 12.874.777a17.974 17.974 0 0 1 13.785 1.376 17.98 17.98 0 0 1 8.774 10.721l3.104 10.281a2 2 0 0 1-1.336 2.493L6.373 34.953a2.011 2.011 0 0 1-.579.086zM18.123 3.997c-1.369 0-2.746.202-4.093.608-3.606 1.088-6.572 3.516-8.352 6.835s-2.16 7.135-1.072 10.74l2.525 8.366 26.998-8.15-2.525-8.366a14.007 14.007 0 0 0-6.835-8.352 14.03 14.03 0 0 0-6.646-1.681z"/></g></svg></g><g transform="translate(1072.8 1158.0) rotate(0.0 87.0 84.0) scale(1.2083752908087086 1.2153041515657892)"><svg width="143.995" height="138.237" viewBox="0 0 143.995 138.237"><path d="M2 134.879c7.128-32.399 23.382-90.921 36.562-97.614 6.682-3.394 62.382-29.275 75.567-33.822 26.485-9.134 41.22 27.538 11.224 41.066-17.72 7.992-53.355 25.285-53.355 25.285 6.396 21.59 8.997 44.07-.954 66.442" style="fill:#fff"/><path d="M71.043 138.237a2 2 0 0 1-1.827-2.814c8.359-18.795 8.625-38.86.862-65.061a2.002 2.002 0 0 1 1.045-2.368c.356-.173 35.864-17.397 53.406-25.309 14.612-6.589 17.571-18.9 14.138-27.55-3.034-7.643-11.806-13.968-23.887-9.802-13.109 4.521-68.477 30.242-75.313 33.714-11.842 6.015-27.727 60.862-35.515 96.261a1.997 1.997 0 0 1-2.383 1.523 1.999 1.999 0 0 1-1.523-2.383c.808-3.671 19.983-90.016 37.61-98.968 6.872-3.49 62.588-29.366 75.819-33.929 14.564-5.024 25.197 2.754 28.909 12.107 4.113 10.36.794 25.003-16.211 32.672-15.416 6.953-44.787 21.138-51.784 24.524 4.844 16.85 9.491 41.437-1.52 66.192a2 2 0 0 1-1.828 1.188Z" style="fill:#190e64"/></svg></g><g transform="translate(1741.2 836.4) rotate(0.0 569.4 629.3999999999999) scale(1.1988188665540274 1.1990741181737645)"><svg width="949.935" height="1049.81" viewBox="0 0 949.935 1049.81"><path d="M12.065 872.393C16.407 732.918 27.74 453.64 132.719 357.2 267.469 233.409 460.07 422.894 332 553.876c-33.039 21.354-45.721 265.101-39.947 318.518H12.065z" fill="#fff"/><path d="M292.054 874.393H12.065a2.003 2.003 0 0 1-1.999-2.062c1.846-59.297 5.282-169.671 22.614-274 19.768-118.982 52.97-200.605 98.686-242.604 32.219-29.598 70.018-43.535 109.318-40.297 34.95 2.877 68.394 19.106 94.169 45.697 24.893 25.68 39.483 58.007 41.084 91.026 1.803 37.178-12.896 72.837-42.507 103.122a1.974 1.974 0 0 1-.344.281c-13.517 8.736-25.771 61.856-33.623 145.742-6.849 73.169-8.146 145.67-5.421 170.881a1.999 1.999 0 0 1-1.988 2.215zm-277.925-4h275.718c-2.452-27.219-1.048-98.081 5.634-169.469 5.699-60.889 16.434-135.98 35.239-148.6 63.371-64.967 45.096-143.193 1.261-188.414-46.192-47.653-127.827-69.62-197.908-5.238-45.044 41.38-77.829 122.233-97.446 240.313-17.09 102.871-20.638 211.733-22.498 271.407z" fill="#190e64"/><path d="M160.427 336.457C80.048 384.3 36.31 460.264 2 618.166c73.216 47.309 191.028 52.11 300.184 38.17 2.181-30.779 7.349-58.197 18.112-84.461" fill="#fff"/><g fill="#190e64"><path d="M199.52 665.133c-67.617 0-143.743-9.838-198.605-45.287a1.998 1.998 0 0 1-.869-2.104c17.514-80.604 37.263-138.654 62.151-182.686 24.673-43.652 55.562-75.529 97.207-100.317a2 2 0 0 1 2.047 3.438C80.838 386.159 38.162 461.869 4.251 617.234c84.953 54.026 221.12 46.751 296.058 37.324 2.441-32.68 8.217-59.23 18.138-83.44a2 2 0 0 1 3.701 1.517c-9.92 24.207-15.629 50.849-17.968 83.843a1.999 1.999 0 0 1-1.742 1.842c-27.628 3.529-63.857 6.813-102.917 6.814z"/><path d="M173.388 329.158c49.292-20.303 131.112-36.705 173.724-32.528l148.898-24.27s108.747-28.326 192.114-12.231c61.434 11.861 70.428 216.558 45.256 259.036l9.44 353.228H193.943c-3.564-90.533-1.374-275.78 7.676-346.366"/><path d="M742.819 874.393H193.942a2 2 0 0 1-1.998-1.921c-3.396-86.292-1.625-274.047 7.69-346.699a2 2 0 1 1 3.966.509c-9.222 71.929-11.025 257.114-7.735 344.111h544.899l-9.385-351.175a1.994 1.994 0 0 1 .278-1.073c9.029-15.237 13.976-53.912 12.603-98.528-1.504-48.844-9.813-93.417-22.795-122.29-9.386-20.873-20.731-32.728-33.722-35.235-81.974-15.826-190.147 11.92-191.231 12.203a2.2 2.2 0 0 1-.183.039l-148.897 24.27a2.035 2.035 0 0 1-.517.017c-40.514-3.969-121.242 11.164-172.768 32.386a2 2 0 0 1-1.523-3.698c51.905-21.38 133.299-36.628 174.421-32.694l148.553-24.214c3.775-.967 111.106-28.026 192.903-12.235 14.344 2.77 26.662 15.394 36.612 37.522 13.189 29.333 21.625 74.459 23.145 123.807 1.402 45.545-3.521 83.805-12.865 100.185l9.424 352.66a1.994 1.994 0 0 1-1.999 2.053z"/></g><path d="m473.062 186.498 22.948 85.862s-19.186 60.481-109.967 60.481c-41.992 0-38.932-36.211-38.932-36.211l-8.145-33.637" fill="#fff"/><path d="M386.044 334.841c-14.02 0-24.733-3.922-31.843-11.657-9.541-10.382-9.238-24.002-9.104-26.381l-8.073-33.339a2 2 0 1 1 3.887-.942l8.146 33.637c.051.209.067.425.05.639-.011.134-1.014 13.857 8.069 23.709 6.321 6.856 16.034 10.333 28.869 10.333 46.107 0 73.025-16.064 87.486-29.54 13.996-13.042 19.369-26.252 20.388-29.021l-22.789-85.266a2 2 0 0 1 3.865-1.033l22.948 85.862a2.01 2.01 0 0 1-.026 1.122c-.202.638-5.142 15.794-21.479 31.095-14.992 14.042-42.845 30.781-90.393 30.781z" fill="#190e64"/><path d="M430.45 249.96c-25.315 16.272-77.25 23.091-94.795 22.345-53.485-1.854-95.06-17.144-96.742-55.489-.708-16.148 10.83-40.618 29.485-52.09 10.617-76.28 35.632-104.498 72.622-116.437 45.77-14.773 81.743-14.74 114.265 5.543 26.427 16.481 43.141 46.094 40.442 84.109-1.441 20.293-11.066 48.117-18.905 61.221" fill="#fff"/><path d="M338.752 274.366c-1.139 0-2.2-.021-3.182-.063-62.984-2.183-97.104-22.032-98.655-57.399-.713-16.241 10.398-41.06 29.631-53.377 5.157-36.461 13.866-63.378 26.615-82.266 11.555-17.12 26.566-28.201 47.243-34.875 48.637-15.697 84.393-13.924 115.938 5.75 28.896 18.021 43.978 49.347 41.379 85.947-1.447 20.384-11.087 48.57-19.183 62.106a2 2 0 1 1-3.433-2.053c7.859-13.141 17.22-40.522 18.626-60.336 2.49-35.073-11.909-65.06-39.506-82.27-30.455-18.995-65.18-20.64-112.592-5.337-41.107 13.268-61.751 46.531-71.255 114.81a2 2 0 0 1-.933 1.428c-17.906 11.012-29.21 34.899-28.534 50.299 1.826 41.629 52.567 52.113 94.813 53.578 16.666.707 68.604-5.932 93.645-22.028a2 2 0 1 1 2.162 3.365c-23.964 15.405-71.485 22.723-92.779 22.723z" fill="#190e64"/><path d="M423.853 155.545c-19.452-18.578-40.21-41.961-40.729-60.124 0 0-33.732-2.595-55.01 10.001 0 0-3.114-12.077 7.265-22.456 0 0-36.846 16.607-64.867.694 0 0 8.809-3.34 17.066-9.741 0 0-19.791-1.25-29.435-18.74 0 0 20.645 1.272 33.055-.385 0 0-9.624-6.996-11.1-16.963 0 0 20.241 4.389 41.681-4.359 15.289-6.238 69.422-35.577 125.428-4.345 0 0 4.729-12.098.445-27.127 0 0 19.268 16.57 18.466 38.288 0 0 19.298-7.074 31.219 1.374 0 0-16.566 7.814-20.152 14.673 0 0 22.716 33.381 19.912 73.328-3.289 46.865-18.116 79.179-18.116 79.179-14.101-28.97-31.12-30.368-55.129-53.298z" fill="#ec535b"/><path d="M478.981 210.842a1.999 1.999 0 0 1-1.798-1.125c-8.816-18.112-18.672-25.08-31.149-33.902-6.956-4.918-14.84-10.493-23.563-18.824-26.297-25.115-39.813-44.665-41.233-59.67-7.084-.304-34.327-.703-52.106 9.822a2 2 0 0 1-2.955-1.222c-.115-.445-2.278-9.256 3.233-18.548-12.164 4.073-38.304 10.282-59.886-1.974a2.003 2.003 0 0 1-1.007-1.893 2.003 2.003 0 0 1 1.284-1.716c.071-.027 6.073-2.335 12.661-6.676-6.814-1.56-18.963-6.078-26.071-18.969a1.998 1.998 0 0 1 1.874-2.962c.181.011 16.145.972 28.181.081-3.138-3.159-7.343-8.498-8.327-15.14a2.001 2.001 0 0 1 2.4-2.248c.197.042 19.93 4.139 40.504-4.255 1.319-.539 2.961-1.264 4.862-2.105 18.973-8.389 68.935-30.477 120.131-3.313 1.061-4.022 2.711-13.13-.289-23.654a2.002 2.002 0 0 1 3.228-2.065c.782.673 18.406 16.076 19.163 37.078 5.938-1.676 20.349-4.636 30.375 2.469a2 2 0 0 1-.303 3.44c-4.167 1.967-15.093 7.871-18.637 12.832 3.946 6.188 22.109 36.875 19.539 73.501-3.276 46.688-18.144 79.547-18.294 79.873a2 2 0 0 1-1.795 1.166h-.022zm-53.748-56.744c8.511 8.127 16.267 13.612 23.11 18.451 11.554 8.169 21.643 15.302 30.447 31.545 3.918-9.921 13.736-37.88 16.312-74.571 2.724-38.807-19.348-71.735-19.57-72.063a2 2 0 0 1-.119-2.052c2.862-5.476 12.429-11.085 17.69-13.857-10.949-4.873-26.131.555-26.298.616a2 2 0 0 1-2.686-1.952c.511-13.843-7.674-25.64-13.109-31.898 1.645 12.146-1.768 21.099-1.94 21.539a1.998 1.998 0 0 1-2.836 1.018c-50.206-27.996-98.226-6.766-118.73 2.3-1.929.854-3.596 1.59-4.968 2.15-17.09 6.974-33.242 5.861-39.806 4.971 2.452 7.549 9.566 12.824 9.646 12.882a2.002 2.002 0 0 1-.913 3.599c-9.333 1.248-22.971.88-29.585.594 9.475 13.311 25.654 14.542 25.828 14.554.829.055 1.539.617 1.782 1.411s-.029 1.656-.686 2.165c-5.022 3.893-10.194 6.667-13.619 8.298 26.31 11.958 59.031-2.501 59.373-2.655a2 2 0 0 1 2.237 3.238c-6.688 6.689-7.328 14.04-7.101 17.883 21.538-11.146 52.237-8.939 53.584-8.836a2 2 0 0 1 1.846 1.937c.398 13.934 13.895 33.696 40.111 58.735z" fill="#ec535b"/><path d="M422.468 162.371a27.26 27.26 0 0 1 4.871-13.7c8.665-12.4 25.742-15.428 38.143-6.763 12.4 8.665 15.428 25.742 6.763 38.143-8.665 12.4-25.742 15.428-38.143 6.763" fill="#fff"/><path d="M449.729 193.761c-5.967 0-11.78-1.818-16.773-5.308a2 2 0 1 1 2.291-3.279 25.228 25.228 0 0 0 18.978 4.188c6.678-1.184 12.495-4.898 16.38-10.458 8.02-11.477 5.208-27.339-6.269-35.358-11.477-8.02-27.339-5.208-35.358 6.269a25.35 25.35 0 0 0-4.515 12.697 2 2 0 0 1-3.991-.286 29.356 29.356 0 0 1 5.226-14.702c9.283-13.286 27.645-16.541 40.929-7.257 13.284 9.282 16.539 27.643 7.257 40.928-4.497 6.436-11.23 10.734-18.961 12.105-1.732.307-3.47.459-5.193.459z" fill="#190e64"/><path d="M445.694 178.593c-1.801 0-4.742-.776-7.443-4.986a2 2 0 0 1 3.368-2.16c1.358 2.117 2.919 3.259 4.27 3.137.946-.086 1.824-.796 2.236-1.808.184-.449.516-1.603-.354-2.626-.517-.608-1.307-1.292-2.144-2.014-3.42-2.957-9.145-7.905-2.974-16.17 4.055-5.432 11.27-5.377 16.302-2.52 5.193 2.95 9.002 9.391 5.804 17.129a2 2 0 0 1-3.697-1.528c2.42-5.854-.521-10.101-4.082-12.123-3.508-1.992-8.454-2.14-11.121 1.434-3.752 5.026-1.538 7.36 2.385 10.751.956.827 1.859 1.607 2.576 2.451 1.588 1.87 1.965 4.385 1.009 6.728-.986 2.415-3.122 4.055-5.575 4.28-.17.016-.357.025-.559.025zm-138.78-26.968a2 2 0 0 1-1.992-2.218l2.293-20.965a2.012 2.012 0 0 1 2.206-1.771 2 2 0 0 1 1.771 2.206l-2.293 20.965a2 2 0 0 1-1.985 1.783z" fill="#190e64"/><path d="M277.609 161.331s-13.459-14.8-23.047-5.062c-9.587 9.737 1.078 23.754 1.078 23.754" fill="#fff"/><path d="M255.641 182.022a1.993 1.993 0 0 1-1.592-.789c-4.052-5.325-9.456-17.689-.911-26.368 2.624-2.666 5.772-3.986 9.255-3.911 8.541.169 16.367 8.669 16.696 9.031a2 2 0 0 1-2.958 2.693c-.069-.076-7.014-7.596-13.827-7.725-2.373-.06-4.471.844-6.316 2.719-8.243 8.373.855 20.625 1.247 21.142a2.002 2.002 0 0 1-1.594 3.208zm55.842 44.464c-2.283 0-4.621-.2-6.983-.605a2.002 2.002 0 0 1-1.634-2.31 2.002 2.002 0 0 1 2.31-1.633c7.769 1.333 15.167.222 20.841-3.125 5.822-3.435 9.533-8.949 10.732-15.946a2.001 2.001 0 0 1 3.944.676c-1.405 8.192-5.776 14.664-12.643 18.715-4.726 2.788-10.446 4.228-16.566 4.228z" fill="#190e64"/><path d="M515.848 267.866c-3.431 19.456-15.18 64.134-24.517 99.973-7.413 28.455-13.142 51.38-13.142 51.38-9.525 217.146 17.821 453.175 17.821 453.175h246.809s-4.834-299.649-9.44-353.228c31.174-60.371 45.15-241.001-45.256-259.036-62.774-12.523-145.533 2.653-172.276 7.736z" fill="#fff"/><path d="M742.819 874.393h-246.81a1.998 1.998 0 0 1-1.986-1.77c-.274-2.362-27.257-238.673-17.833-453.493.006-.134.025-.267.058-.397.058-.229 5.816-23.26 13.147-51.399l1.669-6.401c9.186-35.24 19.598-75.182 22.813-93.415a2.002 2.002 0 0 1 1.597-1.618c71.969-13.68 130.188-16.281 173.041-7.733 23.147 4.618 41.052 19.774 53.217 45.047 30.454 63.269 16.398 171.752-6.312 216.353 4.544 54.564 9.35 349.807 9.398 352.793a1.998 1.998 0 0 1-2 2.033zm-245.022-4h242.989c-.438-26.472-5.052-300.472-9.399-351.057a2.004 2.004 0 0 1 .216-1.089c11.645-22.55 20.393-60.885 22.83-100.044 2.821-45.329-2.969-85.55-16.304-113.254-11.591-24.08-28.547-38.5-50.396-42.859-42.079-8.395-99.321-5.876-170.161 7.484-3.498 18.949-13.652 57.901-22.637 92.367l-1.668 6.401a6010.059 6010.059 0 0 0-13.089 51.166c-8.955 204.632 15.155 428.741 17.619 450.885z" fill="#190e64"/><path d="M688.124 260.129c144.722 20.84 223.697 158.501 242.059 296.809 10.798 70.136 10.034 140.5-2.147 198.128-13.926 65.883-72.082 111.07-136.833 111.076-87.668.931-156.341-83.186-137.113-168.981 10.369-41.733-1.609-132.821-28.74-171.133" fill="#fff"/><path d="M789.742 868.15c-42.006.002-81.644-19.246-108.936-52.963-27.482-33.952-37.931-77.131-28.667-118.464 4.953-19.937 4.821-52.913-.333-86.104-5.532-35.63-15.771-66.04-28.088-83.435a1.999 1.999 0 1 1 3.264-2.311c27.444 38.754 39.631 130.185 29.05 172.771-8.984 40.089 1.175 82.03 27.884 115.027 26.834 33.15 65.936 51.902 107.267 51.472 64.766-.006 121.489-46.053 134.897-109.49 12.133-57.401 12.889-127.51 2.127-197.409-17.05-128.42-89.144-273.357-240.368-295.134a2 2 0 1 1 .571-3.959c35.053 5.047 67.718 17.165 97.089 36.015 27.22 17.47 51.663 40.729 72.649 69.13 38.004 51.433 64.291 120.11 74.019 193.38 10.827 70.323 10.058 140.941-2.172 198.804-6.772 32.04-24.552 60.944-50.063 81.39-25.161 20.164-56.672 31.271-88.727 31.273-.485.005-.978.008-1.462.008z" fill="#190e64"/><path d="M201.618 526.028c-15.465 116.462-7.676 346.366-7.676 346.366h98.111c-7.333-73.53-14.444-444.589 42.56-576.386-33.037-.35-112.908 5.091-174.187 40.449" fill="#fff"/><path d="M292.054 874.393h-98.111a2 2 0 0 1-1.999-1.933c-.078-2.301-7.617-231.403 7.692-346.696a1.994 1.994 0 0 1 2.246-1.719 2 2 0 0 1 1.719 2.246c-14.517 109.321-8.421 321.561-7.721 344.103h93.972c-7.782-83.507-12.735-441.207 41.748-572.399-22.563.032-105.448 2.849-170.173 40.195a2 2 0 1 1-2-3.465c68.96-39.79 158.038-40.903 175.208-40.717a2 2 0 0 1 1.814 2.794c-55.945 129.35-50.34 495.835-42.405 575.394a1.998 1.998 0 0 1-1.99 2.198z" fill="#190e64"/><path d="M509.102 716.939c36.729-38.774 124.392-67.22 147.814-73.964 69.566-23.731 125.467 14.639 187.652-13.891 89.637-41.125 121.874 21.138 93.194 129.772-20.342 77.051-59.621 111.143-151.119 133.496-71.244 17.405-133.965 18.907-182.8 13.706-3.157-120.793-5.727-158.995-94.741-189.118z" fill="#fff"/><path d="M654.287 910.658c-19.536 0-36.568-1.112-50.656-2.613a1.998 1.998 0 0 1-1.787-1.936c-3.07-117.486-4.104-157.063-93.383-187.276a2.001 2.001 0 0 1-.812-3.269c40.12-42.354 137.717-71.345 148.713-74.511 34.026-11.612 64.779-8.504 94.521-5.499 31.519 3.186 61.29 6.192 92.851-8.287 36.271-16.642 65.242-17.191 83.788-1.591 12.467 10.488 19.818 27.643 21.85 50.987 2 22.982-1.255 50.808-9.676 82.703-10.63 40.264-25.893 67.481-49.488 88.25-23.375 20.574-55.169 34.971-103.09 46.678-51.094 12.482-96.331 16.364-132.83 16.364zm-48.491-6.408c40.195 4.114 103.608 4.911 180.372-13.843 91.745-22.412 129.51-55.736 149.66-132.063 16.537-62.639 12.57-109.879-10.882-129.608-17.276-14.532-44.781-13.782-79.545 2.165-32.551 14.934-62.849 11.874-94.921 8.632-29.315-2.961-59.624-6.022-92.919 5.334-38.729 11.154-111.688 38.427-144.815 71.207 43.743 15.223 65.667 32.382 77.762 60.635 12.003 28.039 13.69 66.829 15.288 127.541z" fill="#190e64"/><path d="M526.619 706.09c85.323-25.85 140.795 171.47 96.51 196.517-94.044 32.833-168.941-178.578-96.51-196.517z" fill="#190e64"/><path d="M603.172 908.068c-17.547 0-35.058-7.692-51.539-22.813-38.942-35.725-64.452-107.285-53.521-150.135 4.276-16.763 13.949-27.467 27.977-30.96 19.493-5.893 38.483-1.08 56.44 14.291 15.172 12.986 28.857 33.088 39.576 58.13 21.453 50.117 27.38 113.417 2.009 127.767a2.062 2.062 0 0 1-.325.147c-6.837 2.387-13.73 3.571-20.617 3.572zm-61.005-202.352c-4.796 0-9.783.716-14.968 2.287-.033.01-.066.02-.1.027-12.713 3.148-21.162 12.596-25.111 28.078-4.937 19.353-2.106 46.589 7.765 74.725 10.053 28.652 26.303 54.703 44.584 71.475 15.169 13.916 39.263 28.4 67.961 18.471 20.771-12.032 18.988-69.225-3.869-122.623-7.796-18.213-34.562-72.439-76.262-72.439zm-15.548.373h.01z" fill="#190e64"/><circle cx="540.505" cy="814.997" fill="#fff" r="54.263"/><path d="M540.505 871.26c-31.023 0-56.263-25.239-56.263-56.263s25.239-56.263 56.263-56.263 56.264 25.239 56.264 56.263-25.24 56.263-56.264 56.263zm0-108.525c-28.817 0-52.263 23.445-52.263 52.263s23.445 52.263 52.263 52.263 52.264-23.445 52.264-52.263-23.445-52.263-52.264-52.263z" fill="#190e64"/><path d="M569.023 902.607c-13.711 64.409-108.314 83.966-108.314 83.966-46.815 4.399-159.147-245.708-142.111-252.586 27.57-11.132 106.318-42.321 161.996-20.094 60.499 24.152 104.288 114.21 88.429 188.714z" fill="#fff"/><path d="M459.518 988.628c-24.735 0-61.455-60.001-81.372-96.239-27.618-50.248-54.002-110.979-61.372-141.264-2.883-11.844-2.561-17.523 1.076-18.992 26.292-10.617 106.304-42.928 163.486-20.097 29.511 11.78 56.451 39.654 73.915 76.475 17.592 37.092 23.324 78.83 15.729 114.513-5.735 26.945-26.603 50.287-60.346 67.502-25.312 12.913-49.279 17.957-49.519 18.007a2.046 2.046 0 0 1-.218.032c-.455.043-.917.063-1.38.063zm-24.343-280.59c-46.973 0-96.35 19.938-115.827 27.804.011 0-2.407 2.372 3.365 21.891 3.855 13.033 10.313 30.297 18.677 49.924 17.771 41.704 40.595 85.89 61.053 118.194 24.669 38.954 45.258 59.83 57.97 58.741 1.76-.379 24.506-5.423 48.485-17.672 22.722-11.605 51.257-32.256 58.17-64.729l1.956.416-1.956-.416c7.417-34.842 1.792-75.652-15.431-111.966-17.036-35.919-43.2-63.064-71.783-74.475-13.849-5.528-29.133-7.713-44.679-7.713z" fill="#190e64"/><path d="M257.395 774.031c-15.949 17.151-31.534 54.136-37.976 72.133-11.287 31.535 42.575 60.733 60.295 28.151 3.14-5.774 19.686-38.65 19.686-38.65-3.298-26.637-27.45-61.634-42.005-61.634z" fill="#fff"/><path d="M255.746 890.509c-5.508 0-11.086-1.313-16.13-3.571-15.812-7.078-28.473-23.588-22.08-41.447 6.814-19.04 22.569-55.804 38.394-72.821a2.005 2.005 0 0 1 1.465-.638c15.876 0 40.544 35.545 43.99 63.388a2 2 0 0 1-.198 1.146c-.676 1.344-16.597 32.97-19.716 38.706-5.926 10.897-15.71 15.238-25.725 15.238zm2.486-114.432c-15.174 16.835-30.31 52.262-36.931 70.761-5.573 15.571 5.817 30.122 19.948 36.448 11.616 5.201 28.198 5.721 36.707-9.926 2.867-5.273 17.205-33.727 19.381-38.047-3.56-26.47-26.42-57.87-39.105-59.236z" fill="#190e64"/><path d="M337.904 726.725c-34.533 11.284-48.812 20.006-67.763 34.678 21.988 14.076 33.959 34.632 39.518 59.335l56.449-23.879c1.585-26.616-12.677-63.3-28.205-70.133z" fill="#fff"/><path d="M309.659 822.737a2 2 0 0 1-1.951-1.561c-5.9-26.218-18.542-45.219-38.646-58.089a2 2 0 0 1-.147-3.266c19.564-15.146 34.078-23.794 68.366-34.998a2.013 2.013 0 0 1 1.427.07c15.954 7.021 31.063 44.072 29.396 72.083a2 2 0 0 1-1.217 1.723l-56.449 23.879c-.25.105-.515.158-.779.158zm-36.077-61.457c19.081 13.021 31.37 31.61 37.483 56.69l53.108-22.466c1.037-25.611-12.433-59.604-26.403-66.631-31.883 10.472-46.225 18.702-64.188 32.406z" fill="#190e64"/><path d="M299.4 835.665c-10.315-28.982-23.141-52.217-42.005-61.634 2.271-5.908 6.266-10.336 12.746-12.628 19.428 11.542 32.613 31.304 39.518 59.335" fill="#190e64"/><path d="M299.4 837.666a2.002 2.002 0 0 1-1.884-1.33c-11.824-33.22-24.856-52.449-41.016-60.516a2 2 0 0 1-.974-2.507c2.617-6.807 7.31-11.448 13.946-13.796a2.005 2.005 0 0 1 1.688.166c19.833 11.783 33.438 32.163 40.439 60.575a2.002 2.002 0 0 1-1.464 2.421 2.006 2.006 0 0 1-2.421-1.464c-6.636-26.936-19.344-46.309-37.778-57.599-4.562 1.83-7.845 4.953-9.982 9.5 16.365 9 29.534 28.74 41.328 61.877a2 2 0 0 1-1.884 2.672z" fill="#190e64"/><path d="M287.986 835.657c-7.344 12.805-24.264 36.275-30.797 54.929-11.448 32.685 44.13 62.323 62.54 28.682 3.125-5.71 21.235-31.125 21.235-31.125-8.176-31.315-25.244-58.665-52.978-52.485z" fill="#fff"/><path d="M294.698 936.04c-5.689 0-11.441-1.345-16.646-3.661-16.174-7.2-29.183-24.096-22.752-42.455 4.8-13.701 14.953-29.707 23.111-42.567 3.126-4.929 5.826-9.186 7.839-12.694.28-.487.752-.835 1.301-.957 24.779-5.525 44.956 14.134 55.348 53.933a2 2 0 0 1-.307 1.665c-.181.254-18.076 25.384-21.108 30.925-6.188 11.308-16.379 15.813-26.786 15.813zm-5.427-98.609c-1.998 3.424-4.555 7.454-7.481 12.068-8.049 12.688-18.066 28.479-22.714 41.747-5.631 16.076 6.103 31.023 20.604 37.479 12.089 5.382 29.374 5.883 38.295-10.417 2.875-5.253 17.713-26.194 20.815-30.561-4.816-17.97-18.855-56.392-49.519-50.316z" fill="#190e64"/><path d="M369.142 786.897c-23.498 8.627-51.398 20.883-69.158 33.948 18.614 4.343 39.251 29.582 49.227 58.951l57.155-25.302c0-27.861-14.224-62.998-37.224-67.597z" fill="#fff"/><path d="M349.211 881.796a2.003 2.003 0 0 1-1.894-1.356c-9.938-29.261-30.036-53.505-47.787-57.647-.761-.177-1.348-.78-1.505-1.545s.146-1.551.773-2.014c20.403-15.009 52.397-27.879 69.653-34.214.345-.128.72-.157 1.082-.084 11.138 2.227 21.307 11.511 28.633 26.141 6.481 12.942 10.199 28.768 10.199 43.418 0 .791-.467 1.509-1.19 1.829l-57.155 25.302a2 2 0 0 1-.81.171zm-44.759-61.668c17.48 6.606 36.094 29.521 45.933 56.961l53.972-23.893c-.425-27.725-14.383-59.59-35.065-64.224-16.253 5.989-45.021 17.588-64.839 31.155z" fill="#190e64"/><path d="M340.964 888.142c-10.826-28.875-34.405-53.364-52.978-52.485 0-7.127 6.211-14.263 11.998-14.812 17.781 2.976 46.305 29.772 49.227 58.951" fill="#190e64"/><path d="M340.964 890.143c-.81 0-1.571-.496-1.873-1.299-10.7-28.54-32.984-51.211-50.112-51.211-.301 0-.6.007-.897.021a2 2 0 0 1-2.095-1.998c0-7.963 6.711-16.129 13.809-16.804.173-.018.347-.012.52.019 18.351 3.071 47.803 29.923 50.887 60.725a2 2 0 0 1-3.98.398c-2.844-28.408-30.526-54.099-47.295-57.131-4.054.557-8.797 5.325-9.763 10.807 18.51 1.021 41.676 24.435 52.674 53.77a2 2 0 0 1-1.873 2.703z" fill="#190e64"/><path d="M331.736 890.919c-7.344 12.805-24.264 36.275-30.797 54.929-11.448 32.685 44.13 62.323 62.54 28.682 3.125-5.71 21.235-31.125 21.235-31.125-8.176-31.315-25.244-58.665-52.978-52.485z" fill="#fff"/><path d="M338.448 991.303c-5.689 0-11.441-1.346-16.645-3.662-16.174-7.2-29.183-24.095-22.752-42.454 4.799-13.7 14.951-29.706 23.109-42.566 3.127-4.929 5.827-9.187 7.84-12.696.28-.487.752-.835 1.301-.957 24.779-5.528 44.956 14.135 55.349 53.933a2 2 0 0 1-.307 1.665c-.181.254-18.077 25.384-21.109 30.925-6.188 11.308-16.379 15.813-26.786 15.813zm-5.427-98.61c-1.998 3.425-4.555 7.455-7.482 12.071-8.049 12.688-18.065 28.478-22.712 41.745-5.631 16.076 6.103 31.022 20.603 37.478 12.089 5.381 29.374 5.885 38.295-10.417 2.875-5.253 17.714-26.194 20.816-30.561-4.816-17.968-18.843-56.397-49.52-50.316z" fill="#190e64"/><path d="M408.851 844.58c-23.498 8.627-47.356 18.463-65.116 31.527 18.614 4.343 39.251 29.582 49.227 58.951l58.151-25.302c0-23.154-18.447-55.884-42.262-65.176z" fill="#fff"/><path d="M392.961 937.058a2.002 2.002 0 0 1-1.894-1.357c-9.938-29.261-30.035-53.505-47.787-57.646-.761-.177-1.348-.78-1.505-1.545s.146-1.551.773-2.014c18.427-13.555 43.508-23.678 65.612-31.794a2.007 2.007 0 0 1 1.416.015c24.917 9.722 43.535 43.411 43.535 67.039a2 2 0 0 1-1.202 1.834l-58.151 25.302c-.255.11-.526.166-.798.166zm-44.76-61.668c17.483 6.606 36.101 29.528 45.938 56.975l54.953-23.91c-.679-21.622-17.978-52.538-40.272-61.731-20.362 7.494-43.151 16.699-60.618 28.667z" fill="#190e64"/><path d="M384.714 943.404c-7.505-27.688-28.968-52.485-52.978-52.485 0-7.127 6.211-14.263 11.998-14.812 17.781 2.976 46.305 29.772 49.227 58.951" fill="#190e64"/><path d="M384.714 945.405a2.003 2.003 0 0 1-1.93-1.478c-6.702-24.728-26.871-51.009-51.048-51.009a2 2 0 0 1-2-2c0-7.964 6.711-16.13 13.81-16.803.17-.018.347-.011.519.019 18.351 3.071 47.803 29.922 50.887 60.724a2 2 0 0 1-3.98.398c-2.844-28.407-30.526-54.098-47.295-57.13-4.065.558-8.825 5.352-9.771 10.853 25.433 1.431 45.672 27.822 52.741 53.901a2.001 2.001 0 0 1-1.931 2.524z" fill="#190e64"/><path d="M375.754 949.362c-7.344 12.805-24.264 36.275-30.797 54.929-11.448 32.685 44.13 62.323 62.54 28.682 3.125-5.71 21.235-31.125 21.235-31.125-8.176-31.315-25.244-58.665-52.978-52.485z" fill="#fff"/><path d="M382.466 1049.746c-5.689 0-11.442-1.346-16.646-3.662-16.174-7.2-29.183-24.095-22.752-42.454 4.799-13.701 14.951-29.705 23.109-42.564 3.127-4.931 5.828-9.188 7.841-12.698.28-.487.752-.835 1.301-.957 24.784-5.522 44.958 14.136 55.348 53.933a2 2 0 0 1-.307 1.665c-.181.254-18.076 25.384-21.108 30.925-6.188 11.308-16.379 15.813-26.786 15.813zm-5.427-98.61c-1.998 3.425-4.556 7.456-7.483 12.072-8.049 12.687-18.064 28.477-22.712 41.744-5.631 16.076 6.103 31.022 20.604 37.478 12.089 5.381 29.375 5.885 38.295-10.417 2.875-5.253 17.713-26.194 20.815-30.561-4.814-17.969-18.856-56.391-49.519-50.316z" fill="#190e64"/><path d="M453.985 902.607c-23.498 8.627-48.474 18.879-66.233 31.943 18.614 4.343 39.251 29.582 49.227 58.951l49.117-14.338c1.492-32.836-8.334-63.547-32.11-76.556z" fill="#fff"/><path d="M436.978 995.501a2 2 0 0 1-1.893-1.356c-9.939-29.261-30.036-53.505-47.787-57.646-.761-.177-1.348-.78-1.505-1.545s.146-1.551.773-2.014c18.44-13.564 44.081-23.895 66.729-32.21a2.021 2.021 0 0 1 1.649.123c22.43 12.271 34.821 41.581 33.148 78.401a1.999 1.999 0 0 1-1.438 1.829l-49.117 14.338c-.187.055-.376.08-.562.08zm-44.757-61.667c17.533 6.626 36.207 29.66 46.022 57.215l45.912-13.403c1.213-34.146-10.064-61.224-30.344-72.844-20.838 7.673-44.088 17.057-61.591 29.032z" fill="#190e64"/><path d="M428.732 1001.848c-7.505-27.688-32.349-53.364-52.978-52.485 0-7.127 6.211-14.263 11.998-14.812 17.781 2.976 46.305 29.772 49.227 58.951l-8.247 8.347z" fill="#190e64"/><path d="M428.731 1003.848a2.005 2.005 0 0 1-1.931-1.476c-7.457-27.515-31.729-51.824-50.962-51.011a2 2 0 0 1-2.085-1.998c0-7.964 6.711-16.13 13.81-16.803.17-.017.346-.011.519.019 18.351 3.071 47.803 29.922 50.887 60.724a1.992 1.992 0 0 1-.567 1.604l-8.247 8.347a2 2 0 0 1-1.423.595zm-50.799-56.484c9.842.403 20.632 6.058 30.648 16.118 9.497 9.538 17.068 21.973 21.106 34.553l5.199-5.262c-3.345-28.036-30.607-53.203-47.193-56.202-4.051.556-8.79 5.317-9.761 10.793z" fill="#190e64"/><path d="M688.124 260.129c115.69 19.402 200.412 86.563 259.811 272.081-64.602 58.526-184.029 75.202-294.003 79.097-3.873-29.086-13.713-61.102-28.581-85.28" fill="#fff"/><path d="M653.931 613.309a1.999 1.999 0 0 1-1.981-1.736c-4.155-31.207-14.471-62.004-28.303-84.496a2 2 0 0 1 3.408-2.095c13.847 22.518 24.233 53.138 28.613 84.264 142.368-5.229 237.267-30.643 289.967-77.656-53.914-167.608-131.076-248.228-257.842-269.487a2.001 2.001 0 0 1 .662-3.945c63.016 10.568 111.343 34.176 152.087 74.294 44.747 44.06 80.498 109.203 109.297 199.15a2 2 0 0 1-.562 2.092c-53.454 48.428-150.04 74.47-295.275 79.614h-.071z" fill="#190e64"/><path d="M535.193 288.409a48.507 48.507 0 0 0-26.897-33.064l-19.207-8.881 6.921 25.896-4.679 95.479-13.142 51.38 27.765-37.872 50.684 19.073z" fill="#fff"/><path d="M478.187 421.219a2 2 0 0 1-1.937-2.496l13.093-51.184 4.653-94.965-6.841-25.594a2.001 2.001 0 0 1 2.773-2.332l19.207 8.881c14.248 6.587 24.456 19.135 28.006 34.427l.016.076 21.445 112.011a1.999 1.999 0 0 1-2.668 2.248l-49.265-18.539-26.868 36.648a2 2 0 0 1-1.614.817zm13.936-171.148 5.819 21.773c.053.2.075.408.065.614l-4.679 95.479a1.985 1.985 0 0 1-.061.398l-10.581 41.364 21.653-29.535a2 2 0 0 1 2.317-.689l47.345 17.817-20.767-108.468c-3.277-14.063-12.672-25.603-25.779-31.663l-15.334-7.09z" fill="#190e64"/><path d="m343.011 279.695-18.384 8.859a55.03 55.03 0 0 0-23.907 22.303l-42.577 96.478 34.581-19.188 11.835 31.071 8.052-47.269 34.501-75.32-4.101-16.935z" fill="#fff"/><path d="M304.558 421.219c-.822 0-1.57-.507-1.868-1.288l-11.014-28.915-32.563 18.068a2 2 0 0 1-2.8-2.557l42.577-96.478c.028-.063.059-.124.093-.184a56.793 56.793 0 0 1 24.776-23.114l18.385-8.859a1.999 1.999 0 0 1 2.812 1.331l4.101 16.935c.106.437.062.896-.125 1.304l-34.392 75.081-8.009 47.01a1.998 1.998 0 0 1-1.972 1.664zm-11.834-35.071a2.004 2.004 0 0 1 1.87 1.289l9.226 24.221 6.821-40.042c.029-.171.081-.339.153-.497l34.213-74.689-3.355-13.856-16.155 7.785a52.802 52.802 0 0 0-22.987 21.404l-40.134 90.94 29.379-16.302c.301-.167.635-.251.971-.251z" fill="#190e64"/></svg></g></svg>