<svg xmlns="http://www.w3.org/2000/svg" xmlns:xlink="http://www.w3.org/1999/xlink" viewBox="0,0,256,256" width="67px" height="67px"><g transform="translate(26.88,26.88) scale(0.79,0.79)"><g fill="none" fill-rule="nonzero" stroke-opacity="0.76863" stroke="#18062f" stroke-width="9" stroke-linecap="butt" stroke-linejoin="miter" stroke-miterlimit="10" stroke-dasharray="" stroke-dashoffset="0" font-family="none" font-weight="none" font-size="none" text-anchor="none" style="mix-blend-mode: normal"><path d="M7.74921,284.16986c-19.83755,0 -35.91907,-16.08151 -35.91907,-35.91907v-240.50159c0,-19.83755 16.08151,-35.91907 35.91907,-35.91907h240.50159c19.83755,0 35.91907,16.08151 35.91907,35.91907v240.50159c0,19.83755 -16.08151,35.91907 -35.91907,35.91907z" id="shape"></path></g><g fill="none" fill-rule="evenodd" stroke="none" stroke-width="none" stroke-linecap="butt" stroke-linejoin="none" stroke-miterlimit="10" stroke-dasharray="" stroke-dashoffset="0" font-family="none" font-weight="none" font-size="none" text-anchor="none" style="mix-blend-mode: normal"><path transform="scale(0.5,0.5)" d="M258,342c25,0 47,-10 63,-27h183c-27,110 -127,192 -245,192c-138.66418,0 -250.84115,-110.8539 -252.96921,-249h-1.03079c0,-1 0,-2 0,-3c0,-70.25501 28.4562,-133.71075 74.5007,-179.4993c45.78855,-46.04449 109.24429,-74.5007 179.4993,-74.5007v2c122,0 223,86 247,200h-178c-16,-21 -41,-35 -70,-35c-48,0 -87,39 -87,87c0,48 39,87 87,87z" id="strokeMainSVG" fill="#2c1313" stroke="#2c1313" stroke-width="15" stroke-linejoin="round"></path><g transform="scale(0.5,0.5)" stroke="none" stroke-width="1" stroke-linejoin="miter"><path d="M259,3c122,0 223,86 247,200h-178c-16,-21 -41,-35 -70,-35c-48,0 -87,39 -87,87c0,48 39,87 87,87c25,0 47,-10 63,-27h183c-27,110 -127,192 -245,192c-140,0 -253,-113 -253,-253c0,-140 113,-253 253,-253z" fill="#31a195"></path><path d="M259,3c122,0 223,86 247,200h-178c-16,-21 -41,-35 -70,-35c-48,0 -87,39 -87,87c0,1 0,2 0,3h-166c0,-1 0,-2 0,-3c0,-140 113,-253 253,-253z" fill="#33cc66"></path></g></g></g></svg>