<svg xmlns="http://www.w3.org/2000/svg" xmlns:xlink="http://www.w3.org/1999/xlink" version="1.1" x="0px" y="0px" viewBox="0 0 100 125" enable-background="new 0 0 100 100" xml:space="preserve"><path d="M25.25,26.427c0-1.1,0.9-2,2-2h45.5c1.1,0,2,0.9,2,2v8.039c0,1.1-0.602,2-1.337,2c-0.735,0-1.7-0.824-2.143-1.83  l-1.733-3.934c-0.443-1.007-1.706-1.83-2.806-1.83H56.682c-1.1,0-2,0.9-2,2v40.353c0,1.1,0.862,2.259,1.916,2.575l4.196,1.259  c1.054,0.316,1.916,1.236,1.916,2.045c0,0.809-0.9,1.471-2,1.471H39.292c-1.1,0-2-0.662-2-1.471c0-0.809,0.862-1.729,1.916-2.045  l4.195-1.259c1.054-0.316,1.916-1.475,1.916-2.575V30.871c0-1.1-0.9-2-2-2H33.27c-1.1,0-2.363,0.824-2.806,1.831l-1.732,3.934  c-0.443,1.007-1.408,1.831-2.144,1.831c-0.736,0-1.339-0.9-1.339-2V26.427z"/></svg>